<?xml version="1.0" encoding="UTF-8" standalone="no"?>
<!-- Created with Inkscape (http://www.inkscape.org/) -->

<svg
     xmlns:dc="http://purl.org/dc/elements/1.1/"
     xmlns:cc="http://creativecommons.org/ns#"
     xmlns:rdf="http://www.w3.org/1999/02/22-rdf-syntax-ns#"
     xmlns:svg="http://www.w3.org/2000/svg"
     xmlns="http://www.w3.org/2000/svg"
     xmlns:sodipodi="http://sodipodi.sourceforge.net/DTD/sodipodi-0.dtd"
     xmlns:inkscape="http://www.inkscape.org/namespaces/inkscape"
     width="468.66751"
     height="469.16431"
     viewBox="0 0 5.2074166 5.2129368"
     id="svg4152"
     version="1.1"
     inkscape:version="0.91 r13725"
     sodipodi:docname="Gear-001_3D.svg">
    <defs
         id="defs4154">
        <linearGradient
             id="linearGradient4147">
            <stop
                 style="stop-color:#f6e900;stop-opacity:1"
                 offset="0"
                 id="stop4149" />
            <stop
                 style="stop-color:black;stop-opacity:1"
                 offset="1"
                 id="stop4151" />
        </linearGradient>
        <linearGradient
             id="linearGradient4135">
            <stop
                 style="stop-color:#ffdc02;stop-opacity:1"
                 offset="0"
                 id="stop4137" />
            <stop
                 id="stop4145"
                 offset="0.58017784"
                 style="stop-color:#ffe702;stop-opacity:1" />
            <stop
                 id="stop4143"
                 offset="0.58572346"
                 style="stop-color:#ff0202;stop-opacity:1" />
            <stop
                 style="stop-color:#ff0202;stop-opacity:1"
                 offset="1"
                 id="stop4139" />
        </linearGradient>
        <filter
             inkscape:collect="always"
             style="color-interpolation-filters:sRGB"
             id="filter4411"
             x="-0.006000001"
             width="1.012"
             y="-0.0059999991"
             height="1.012">
            <feGaussianBlur
                 inkscape:collect="always"
                 stdDeviation="0.012290875"
                 id="feGaussianBlur4413" />
        </filter>
    </defs>
    <sodipodi:namedview
         inkscape:document-units="px"
         pagecolor="white"
         bordercolor="#666666"
         borderopacity="1.0"
         inkscape:pageopacity="0"
         inkscape:pageshadow="2"
         inkscape:zoom="1.8762186"
         inkscape:cx="141.77997"
         inkscape:cy="235.17919"
         inkscape:current-layer="layer1"
         id="namedview4156"
         showgrid="false"
         inkscape:window-width="1600"
         inkscape:window-height="1116"
         inkscape:window-x="-4"
         inkscape:window-y="-3"
         inkscape:window-maximized="1"
         units="px"
         borderlayer="true"
         fit-margin-top="10"
         fit-margin-left="10"
         fit-margin-right="10"
         fit-margin-bottom="10" />
    <metadata
         id="metadata4158">
        <rdf:RDF>
            <cc:Work
                 rdf:about="">
                <dc:format>image/svg+xml</dc:format>
                <dc:type
                     rdf:resource="http://purl.org/dc/dcmitype/StillImage" />
                <dc:title />
                <cc:license
                     rdf:resource="http://creativecommons.org/publicdomain/zero/1.0/" />
                <dc:publisher>
                    <cc:Agent>
                        <dc:title>Sonshine Design</dc:title>
                    </cc:Agent>
                </dc:publisher>
                <dc:creator>
                    <cc:Agent>
                        <dc:title>Sonshine Penguin</dc:title>
                    </cc:Agent>
                </dc:creator>
            </cc:Work>
            <cc:License
                 rdf:about="http://creativecommons.org/publicdomain/zero/1.0/">
                <cc:permits
                     rdf:resource="http://creativecommons.org/ns#Reproduction" />
                <cc:permits
                     rdf:resource="http://creativecommons.org/ns#Distribution" />
                <cc:permits
                     rdf:resource="http://creativecommons.org/ns#DerivativeWorks" />
            </cc:License>
        </rdf:RDF>
    </metadata>
    <g
         inkscape:label="Layer 1"
         inkscape:groupmode="layer"
         id="layer1"
         transform="translate(-3.5438887,2.3986911)">
        <g
             id="g4415"
             inkscape:export-xdpi="90"
             inkscape:export-ydpi="90"
             transform="matrix(-1,0,0,-1,12.295194,0.41555437)">
            <path
                 inkscape:connector-curvature="0"
                 id="path4133"
                 d="m 5.7055663,-2.2875506 c -0.048942,6.553e-4 -0.1196504,0.012308 -0.2207465,0.038563 c -0.7189049,0.1867031 0.2632308,0.2700941 -0.3828558,0.6365017 c -0.6460864,0.3664077 -0.2135132,-0.5192738 -0.7427517,0.00187 c -0.5292385,0.521144 0.3630206,0.10226 -0.013303,0.74262129 C 3.9695856,-0.22763633 3.9013545,-1.2109575 3.7035917,-0.49501619 c -0.1977629,0.71594148 0.3655341,-0.0929266 0.359809,0.6498046 C 4.0576807,0.89751967 3.506906,0.08004571 3.6936091,0.79895068 C 3.8803122,1.5178558 3.9637032,0.53569826 4.3301108,1.1817849 c 0.3664075,0.6460865 -0.5192738,0.2135349 0.00187,0.7427735 c 0.521144,0.5292383 0.1022599,-0.3630206 0.7426214,0.013303 C 5.7149599,2.3141849 4.7316389,2.3823945 5.4475803,2.5801572 C 6.1635217,2.7779202 5.3546543,2.214645 6.0973849,2.22037 C 6.8401161,2.22609 6.0226419,2.7768647 6.7415471,2.5901616 C 7.4604522,2.4034584 6.4782947,2.3200676 7.1243813,1.95366 C 7.7704679,1.5872523 7.3379163,2.4729357 7.8671547,1.95179 C 8.396393,1.430648 7.5041341,1.84953 7.8804577,1.2091684 C 8.2567812,0.56881037 8.3249908,1.5521319 8.5227536,0.83619023 C 8.7205165,0.12024864 8.157263,0.92911689 8.162988,0.18638563 c 0.00573,-0.74273115 0.5564513,0.0747428 0.3697482,-0.64416227 C 8.3460331,-1.1766815 8.2626639,-0.19454589 7.8962562,-0.84063251 C 7.5298487,-1.4867188 8.415532,-1.0541456 7.8943862,-1.583384 C 7.3732443,-2.1126225 7.7921045,-1.2203633 7.1517431,-1.596687 C 6.5113816,-1.9730106 7.4947244,-2.0412202 6.7787831,-2.238983 C 6.7340361,-2.251343 6.6952231,-2.260735 6.661639,-2.267477 C 6.1578711,-2.368566 6.8252926,-1.8738503 6.1289821,-1.8792175 C 5.4906973,-1.8841375 6.0046594,-2.2915549 5.7055663,-2.2875507 Z m 0.4420573,1.1252603 a 1.333333,1.333333 0 0 1 0.2260417,0.025239 a 1.333333,1.333333 0 0 1 1.047157,1.568142 A 1.333333,1.333333 0 0 1 6.2465168,1.4959343 l 0,0.1782335 l -0.2666666,0 l 0,-0.1782118 A 1.333333,1.333333 0 0 1 5.8526801,1.478226 A 1.333333,1.333333 0 0 1 4.8055448,-0.08991645 A 1.333333,1.333333 0 0 1 6.1476236,-1.1622903 Z"
                 style="color:black;fill:#5f5f5f;fill-rule:evenodd;stroke-width:0.01111111;stroke-linecap:round;stroke-linejoin:round" />
            <path
                 inkscape:connector-curvature="0"
                 style="color:black;fill:#5f5f5f;fill-rule:evenodd;stroke-width:0.01111111;stroke-linecap:round;stroke-linejoin:round"
                 d="m 5.7091501,-2.2748363 c -0.048942,6.552e-4 -0.1196504,0.012308 -0.2207465,0.038563 c -0.7189049,0.186703 0.2632308,0.2700941 -0.3828558,0.6365016 c -0.6460864,0.3664077 -0.2135132,-0.5192738 -0.7427517,0.00187 c -0.5292385,0.521144 0.3630206,0.1022599 -0.013303,0.74262138 C 3.9731694,-0.21492193 3.9049383,-1.1982432 3.7071755,-0.48230179 c -0.1977629,0.71594148 0.3655341,-0.0929266 0.359809,0.6498046 C 4.0612645,0.91023407 3.5104898,0.09276011 3.6971929,0.81166508 C 3.883896,1.53057 3.967287,0.54841266 4.3336946,1.1944992 c 0.3664075,0.6460865 -0.5192738,0.2135349 0.00187,0.7427735 C 4.8567049,2.466511 4.4378208,1.574252 5.0781823,1.9505757 C 5.7185437,2.3268992 4.7352227,2.3951087 5.4511641,2.5928715 C 6.1671055,2.7906345 5.3582381,2.2273593 6.1009687,2.2330843 c 0.7427312,0.00572 -0.074743,0.5564946 0.6441622,0.3697915 C 7.464036,2.4161726 6.4818785,2.3327819 7.1279651,1.9663742 C 7.7740517,1.5999666 7.3415001,2.48565 7.8707385,1.9645042 C 8.3999768,1.4433658 7.5077179,1.8622479 7.8840415,1.2218863 C 8.260365,0.58152477 8.3285746,1.5648462 8.5263374,0.84890463 C 8.7241003,0.13296304 8.1608468,0.94183133 8.1665718,0.19910003 c 0.00573,-0.74273115 0.5564513,0.0747428 0.3697482,-0.64416227 C 8.3496169,-1.1639672 8.2662477,-0.18183149 7.89984,-0.82791812 C 7.5334325,-1.4740045 8.4191158,-1.0414314 7.89797,-1.5706697 C 7.3768281,-2.0999082 7.7956883,-1.207649 7.1553269,-1.5839727 c -0.6403615,-0.3763235 0.3429813,-0.4445331 -0.37296,-0.6422959 c -0.044747,-0.01236 -0.08356,-0.021752 -0.1171441,-0.028494 c -0.5037679,-0.101089 0.1636536,0.3936267 -0.5326569,0.3882595 C 5.4942811,-1.8714231 6.0082432,-2.2788405 5.7091501,-2.2748363 Z m 0.4420573,1.1252603 a 1.333333,1.333333 0 0 1 0.2260417,0.025239 a 1.333333,1.333333 0 0 1 1.047157,1.5681421 A 1.333333,1.333333 0 0 1 6.2501006,1.5086486 l 0,0.1782334 l -0.2666666,0 l 0,-0.1782117 A 1.333333,1.333333 0 0 1 5.8562639,1.4909403 A 1.333333,1.333333 0 0 1 4.8091286,-0.07720205 A 1.333333,1.333333 0 0 1 6.1512074,-1.149576 Z"
                 id="path4142" />
            <path
                 id="path4144"
                 d="m 5.7218738,-2.271257 c -0.048942,6.552e-4 -0.1196504,0.012308 -0.2207465,0.038563 c -0.7189049,0.186703 0.2632308,0.2700941 -0.3828558,0.6365016 c -0.6460864,0.3664077 -0.2135132,-0.5192738 -0.7427517,0.00187 c -0.5292385,0.521144 0.3630206,0.1022599 -0.013303,0.74262135 C 3.9858931,-0.21134263 3.917662,-1.1946639 3.7198992,-0.47872249 c -0.1977629,0.71594148 0.3655341,-0.0929266 0.359809,0.6498046 C 4.0739882,0.91381337 3.5232135,0.09633941 3.7099166,0.81524438 C 3.8966197,1.5341493 3.9800107,0.55199196 4.3464183,1.1980785 C 4.7128258,1.844165 3.8271445,1.4116135 4.3482883,1.940852 C 4.8694323,2.4700903 4.4505482,1.5778313 5.0909097,1.954155 C 5.7312674,2.3304785 4.7479464,2.398688 5.4638878,2.5964508 C 6.1798292,2.7942138 5.3709618,2.2309386 6.1136924,2.2366636 c 0.7427312,0.00572 -0.074743,0.5564946 0.6441622,0.3697915 C 7.4767597,2.4197519 6.4946022,2.3363612 7.1406888,1.9699535 c 0.6460866,-0.3664076 0.213535,0.5192758 0.7427734,-0.00187 C 8.4127005,1.4469451 7.5204416,1.8658272 7.8967652,1.2254656 C 8.2730887,0.58510407 8.3412983,1.5684255 8.5390611,0.85248393 C 8.736824,0.13654234 8.1735705,0.94541063 8.1792955,0.20267933 c 0.00573,-0.74273115 0.5564513,0.0747428 0.3697482,-0.64416227 C 8.3623406,-1.1603879 8.2789714,-0.17825219 7.9125637,-0.82433875 C 7.5461562,-1.4704252 8.4318395,-1.0378521 7.9106937,-1.5670904 c -0.5211382,-0.5292385 -0.102278,0.3630207 -0.7426394,-0.013303 c -0.6403615,-0.3763235 0.3429813,-0.4445331 -0.37296,-0.6422959 c -0.044747,-0.01236 -0.08356,-0.021752 -0.1171441,-0.028494 c -0.5037716,-0.101089 0.1636499,0.3936267 -0.5326606,0.3882595 C 5.5070048,-1.8678479 6.0209669,-2.2752612 5.7218738,-2.271257 Z m 0.4420573,1.1252603 a 1.333333,1.333333 0 0 1 0.2260417,0.025239 a 1.333333,1.333333 0 0 1 1.047157,1.5681421 A 1.333333,1.333333 0 0 1 6.2628243,1.5122279 l 0,0.1782334 l -0.2666666,0 l 0,-0.1782117 A 1.333333,1.333333 0 0 1 5.8689876,1.4945196 A 1.333333,1.333333 0 0 1 4.8218523,-0.07362275 A 1.333333,1.333333 0 0 1 6.1639311,-1.1459967 Z"
                 style="color:black;fill:#5f5f5f;fill-rule:evenodd;stroke-width:0.01111111;stroke-linecap:round;stroke-linejoin:round"
                 inkscape:connector-curvature="0" />
            <path
                 inkscape:connector-curvature="0"
                 style="color:black;fill:#5f5f5f;fill-rule:evenodd;stroke-width:0.01111111;stroke-linecap:round;stroke-linejoin:round"
                 d="m 5.7127341,-2.2784156 c -0.048942,6.552e-4 -0.1196504,0.012308 -0.2207465,0.038563 c -0.7189049,0.186703 0.2632308,0.2700941 -0.3828558,0.6365016 c -0.6460864,0.3664077 -0.2135132,-0.5192738 -0.7427517,0.00187 c -0.5292385,0.521144 0.3630206,0.1022599 -0.013303,0.74262111 C 3.9767534,-0.21850149 3.9085223,-1.2018225 3.7107595,-0.48588135 c -0.1977629,0.71594148 0.3655341,-0.0929266 0.359809,0.6498046 C 4.0648485,0.90665451 3.5140738,0.08918055 3.7007769,0.80808552 C 3.88748,1.5269907 3.970871,0.5448331 4.3372786,1.1909199 c 0.3664075,0.6460865 -0.5192738,0.2135349 0.00187,0.7427735 C 4.8602889,2.4629317 4.4414048,1.5706727 5.0817663,1.9469964 C 5.7221277,2.3233199 4.7388067,2.3915294 5.4547481,2.5892922 C 6.1706895,2.7870552 5.3618221,2.22378 6.1045527,2.229505 c 0.7427312,0.00572 -0.074743,0.5564946 0.6441622,0.3697915 C 7.46762,2.4125933 6.4854625,2.3292026 7.1315491,1.9627949 c 0.6460866,-0.3664076 0.213535,0.5192758 0.7427734,-0.00187 C 8.4035608,1.4397865 7.5113019,1.8586686 7.8876255,1.218307 C 8.263949,0.57794521 8.3321586,1.5612669 8.5299214,0.84532507 C 8.7276843,0.12938348 8.1644308,0.93825177 8.1701558,0.19552047 c 0.00573,-0.74273115 0.5564513,0.0747428 0.3697482,-0.64416227 C 8.3532009,-1.1675465 8.2698317,-0.18541105 7.903424,-0.83149769 C 7.5370165,-1.4775838 8.4226998,-1.0450107 7.901554,-1.574249 C 7.3804121,-2.1034875 7.7992723,-1.2112283 7.1589109,-1.587552 c -0.6403615,-0.3763235 0.3429813,-0.4445331 -0.37296,-0.6422959 c -0.044747,-0.01236 -0.08356,-0.021752 -0.1171441,-0.028494 c -0.5037679,-0.101089 0.1636536,0.3936267 -0.5326569,0.3882595 C 5.4978651,-1.8750024 6.0118272,-2.2824198 5.7127341,-2.2784156 Z m 0.4420573,1.1252603 a 1.333333,1.333333 0 0 1 0.2260417,0.025239 a 1.333333,1.333333 0 0 1 1.047157,1.56814184 A 1.333333,1.333333 0 0 1 6.2536846,1.5050693 l 0,0.1782334 l -0.2666666,0 l 0,-0.1782117 A 1.333333,1.333333 0 0 1 5.8598479,1.487361 A 1.333333,1.333333 0 0 1 4.8127126,-0.08078161 A 1.333333,1.333333 0 0 1 6.1547914,-1.1531553 Z"
                 id="path4146" />
            <path
                 id="path4148"
                 d="m 5.7310135,-2.262122 c -0.048942,6.552e-4 -0.1196504,0.012308 -0.2207465,0.038563 c -0.7189049,0.186703 0.2632308,0.2700941 -0.3828558,0.6365016 c -0.6460864,0.3664077 -0.2135132,-0.5192738 -0.7427517,0.00187 c -0.5292385,0.521144 0.3630206,0.1022599 -0.013303,0.74262128 C 3.9950328,-0.20220769 3.9268017,-1.1855289 3.7290389,-0.46958755 C 3.531276,0.24635393 4.094573,-0.56251415 4.0888479,0.18021705 C 4.0831279,0.92294831 3.5323532,0.10547435 3.7190563,0.82437932 C 3.9057594,1.5432843 3.9891504,0.5611269 4.355558,1.2072135 C 4.7219655,1.8533 3.8362842,1.4207485 4.357428,1.949987 C 4.8785683,2.4792253 4.4596842,1.5869663 5.1000457,1.96329 C 5.7404071,2.3396135 4.7570861,2.407823 5.4730275,2.6055858 C 6.1889689,2.8033488 5.3801015,2.2400736 6.1228321,2.2457986 c 0.7427312,0.00572 -0.074743,0.5564946 0.6441622,0.3697915 C 7.4858994,2.4288869 6.5037419,2.3454962 7.1498285,1.9790885 c 0.6460866,-0.3664076 0.213535,0.5192758 0.7427734,-0.00187 C 8.4218402,1.4560801 7.5295813,1.8749622 7.9059049,1.2346006 C 8.2822284,0.59423901 8.350438,1.5775605 8.5482008,0.86161887 C 8.7459637,0.14567728 8.1827102,0.95454553 8.1884352,0.21181427 c 0.00573,-0.74273115 0.5564513,0.0747428 0.3697482,-0.64416227 C 8.3714803,-1.1512529 8.2881111,-0.16911725 7.9217034,-0.81520382 C 7.5552959,-1.4612902 8.4409792,-1.0287171 7.9198371,-1.5579554 C 7.3986952,-2.0871939 7.8175554,-1.1949347 7.177194,-1.5712584 C 6.5368325,-1.9475819 7.5201753,-2.0157915 6.804234,-2.2135543 c -0.044747,-0.01236 -0.08356,-0.021752 -0.1171441,-0.028494 c -0.5037716,-0.101089 0.1636499,0.3936267 -0.5326606,0.3882595 C 5.5161445,-1.8587088 6.0301066,-2.2661262 5.7310135,-2.262122 Z m 0.4420573,1.1252603 a 1.333333,1.333333 0 0 1 0.2260417,0.025239 a 1.333333,1.333333 0 0 1 1.047157,1.56814204 A 1.333333,1.333333 0 0 1 6.271964,1.5213629 l 0,0.1782334 l -0.2666666,0 l 0,-0.1782117 A 1.333333,1.333333 0 0 1 5.8781273,1.5036546 A 1.333333,1.333333 0 0 1 4.830992,-0.06448781 A 1.333333,1.333333 0 0 1 6.1730708,-1.1368617 Z"
                 style="color:black;fill:#6e6e6e;fill-rule:evenodd;stroke-width:0.01111111;stroke-linecap:round;stroke-linejoin:round"
                 inkscape:connector-curvature="0" />
            <path
                 inkscape:connector-curvature="0"
                 style="color:black;fill:#737373;fill-rule:evenodd;stroke-width:0.01111111;stroke-linecap:round;stroke-linejoin:round"
                 d="m 5.7401532,-2.2529871 c -0.048942,6.552e-4 -0.1196504,0.012308 -0.2207465,0.038563 c -0.7189049,0.186703 0.2632308,0.2700941 -0.3828558,0.6365016 c -0.6460864,0.3664077 -0.2135132,-0.5192738 -0.7427517,0.00187 c -0.5292385,0.521144 0.3630206,0.1022599 -0.013303,0.74262141 C 4.0041725,-0.19307272 3.9359414,-1.176394 3.7381786,-0.46045258 c -0.1977629,0.71594148 0.3655341,-0.0929266 0.359809,0.6498046 C 4.0922676,0.93208328 3.5414929,0.11460932 3.728196,0.83351429 C 3.9148991,1.5524192 3.9982901,0.57026187 4.3646977,1.2163484 c 0.3664075,0.6460865 -0.5192738,0.213535 0.00187,0.7427735 C 4.887708,2.4883602 4.4688239,1.5961012 5.1091854,1.9724249 C 5.7495468,2.3487484 4.7662258,2.4169579 5.4821672,2.6147207 C 6.1981086,2.8124837 5.3892412,2.2492085 6.1319718,2.2549335 C 6.874703,2.2606535 6.0572288,2.8114281 6.776134,2.624725 C 7.4950391,2.4380218 6.5128816,2.3546311 7.1589682,1.9882234 c 0.6460866,-0.3664076 0.213535,0.5192758 0.7427734,-0.00187 C 8.4309799,1.465215 7.538721,1.8840971 7.9150446,1.2437355 C 8.2913681,0.60337398 8.3595777,1.5866954 8.5573405,0.87075384 C 8.7551034,0.15481225 8.1918499,0.96368054 8.1975749,0.22094924 c 0.00573,-0.74273115 0.5564513,0.0747428 0.3697482,-0.64416227 C 8.38062,-1.142118 8.2972508,-0.15998228 7.9308431,-0.80606889 C 7.5644356,-1.4521553 8.4501189,-1.0195822 7.9289731,-1.5488205 C 7.4078312,-2.078059 7.8266914,-1.1857998 7.18633,-1.5621235 C 6.5459685,-1.938447 7.5293113,-2.0066566 6.81337,-2.2044194 c -0.044747,-0.01236 -0.08356,-0.021752 -0.1171441,-0.028494 C 6.192458,-2.3340024 6.8598795,-1.8392867 6.163569,-1.8446539 C 5.5252842,-1.8495739 6.0392463,-2.2569913 5.7401532,-2.2529871 Z m 0.4420573,1.1252603 a 1.333333,1.333333 0 0 1 0.2260417,0.025239 a 1.333333,1.333333 0 0 1 1.047157,1.56814211 A 1.333333,1.333333 0 0 1 6.2811037,1.5304978 l 0,0.1782334 l -0.2666666,0 l 0,-0.1782117 A 1.333333,1.333333 0 0 1 5.887267,1.5127895 A 1.333333,1.333333 0 0 1 4.8401317,-0.05535284 A 1.333333,1.333333 0 0 1 6.1822105,-1.1277268 Z"
                 id="path4164" />
            <path
                 id="path4166"
                 d="m 5.7492929,-2.2438522 c -0.048942,6.552e-4 -0.1196504,0.012308 -0.2207465,0.038563 c -0.7189049,0.186703 0.2632308,0.2700941 -0.3828558,0.6365016 c -0.6460864,0.3664077 -0.2135132,-0.5192738 -0.7427517,0.00187 c -0.5292385,0.521144 0.3630206,0.1022599 -0.013303,0.74262134 C 4.0133122,-0.1839379 3.9450811,-1.1672591 3.7473183,-0.45131776 c -0.1977629,0.71594148 0.3655341,-0.0929266 0.359809,0.6498046 C 4.1014073,0.9412181 3.5506326,0.12374414 3.7373357,0.84264911 C 3.9240388,1.5615541 4.0074298,0.57939669 4.3738374,1.2254833 c 0.3664075,0.6460865 -0.5192738,0.213535 0.00187,0.7427735 C 4.8968477,2.4974951 4.4779636,1.6052361 5.1183251,1.9815598 C 5.7586865,2.3578833 4.7753655,2.4260928 5.4913069,2.6238556 C 6.2072483,2.8216186 5.3983809,2.2583434 6.1411115,2.2640684 c 0.7427312,0.00572 -0.074743,0.5564946 0.6441622,0.3697915 C 7.5041788,2.4471567 6.5220213,2.363766 7.1681079,1.9973583 c 0.6460866,-0.3664076 0.213535,0.5192758 0.7427734,-0.00187 C 8.4401196,1.4743499 7.5478607,1.893232 7.9241843,1.2528704 C 8.3005078,0.6125088 8.3687174,1.5958303 8.5664802,0.87988866 C 8.7642431,0.16394707 8.2009896,0.97281532 8.2067146,0.23008406 c 0.00573,-0.74273115 0.5564513,0.0747428 0.3697482,-0.64416227 C 8.3897597,-1.1329831 8.3063905,-0.15084746 7.9399828,-0.79693406 C 7.5735753,-1.4430204 8.4592586,-1.0104473 7.9381165,-1.5396856 C 7.4169746,-2.0689241 7.8358348,-1.1766649 7.1954734,-1.5529886 c -0.6403615,-0.3763235 0.3429813,-0.4445331 -0.37296,-0.6422959 c -0.044747,-0.01236 -0.08356,-0.021752 -0.1171441,-0.028494 C 6.2015977,-2.3248675 6.8690192,-1.8301518 6.1727087,-1.835519 C 5.5344239,-1.840439 6.048386,-2.2478564 5.7492929,-2.2438522 Z m 0.4420573,1.1252603 a 1.333333,1.333333 0 0 1 0.2260417,0.025239 a 1.333333,1.333333 0 0 1 1.047157,1.56814203 A 1.333333,1.333333 0 0 1 6.2902434,1.5396327 l 0,0.1782334 l -0.2666666,0 l 0,-0.1782117 A 1.333333,1.333333 0 0 1 5.8964067,1.5219244 A 1.333333,1.333333 0 0 1 4.8492714,-0.04621802 A 1.333333,1.333333 0 0 1 6.1913502,-1.1185919 Z"
                 style="color:black;fill:#7d7d7d;fill-rule:evenodd;stroke-width:0.01111111;stroke-linecap:round;stroke-linejoin:round"
                 inkscape:connector-curvature="0" />
            <path
                 inkscape:connector-curvature="0"
                 style="color:black;fill:#878787;fill-rule:evenodd;stroke-width:0.01111111;stroke-linecap:round;stroke-linejoin:round"
                 d="m 5.7584325,-2.2347172 c -0.048942,6.552e-4 -0.1196504,0.012308 -0.2207465,0.038563 c -0.7189049,0.186703 0.2632308,0.2700941 -0.3828558,0.6365016 c -0.6460864,0.3664077 -0.2135132,-0.5192738 -0.7427517,0.00187 c -0.5292385,0.521144 0.3630206,0.1022599 -0.013303,0.74262117 C 4.0224518,-0.17480306 3.9542207,-1.1581241 3.7564579,-0.44218292 C 3.558695,0.27375856 4.121992,-0.53510952 4.1162669,0.20762168 C 4.1105469,0.95035294 3.5597722,0.13287898 3.7464753,0.85178395 C 3.9331784,1.5706891 4.0165694,0.58853153 4.382977,1.2346183 c 0.3664075,0.6460865 -0.5192738,0.213535 0.00187,0.7427735 C 4.9059873,2.5066301 4.4871032,1.6143711 5.1274647,1.9906948 C 5.7678261,2.3670183 4.7845051,2.4352278 5.5004465,2.6329906 C 6.2163879,2.8307536 5.4075205,2.2674784 6.1502511,2.2732034 c 0.7427312,0.00572 -0.074743,0.5564946 0.6441622,0.3697915 C 7.5133184,2.4562917 6.5311609,2.372901 7.1772475,2.0064933 c 0.6460866,-0.3664076 0.213535,0.5192758 0.7427734,-0.00187 C 8.4492592,1.4834849 7.5570003,1.902367 7.9333239,1.2620054 C 8.3096474,0.62164364 8.377857,1.6049653 8.5756198,0.8890235 C 8.7733827,0.17308191 8.2101292,0.9819502 8.2158542,0.2392189 c 0.00573,-0.74273115 0.5564513,0.0747428 0.3697482,-0.64416227 C 8.3988993,-1.1238481 8.3155301,-0.14171262 7.9491224,-0.78779923 C 7.5827149,-1.4338854 8.4683982,-1.0013125 7.9472524,-1.5305506 C 7.4261105,-2.0597891 7.8449707,-1.1675299 7.2046093,-1.5438536 c -0.6403615,-0.3763235 0.3429813,-0.4445331 -0.37296,-0.6422959 c -0.044747,-0.01236 -0.08356,-0.021752 -0.1171441,-0.028494 C 6.2107373,-2.3157325 6.8781588,-1.8210168 6.1818483,-1.826384 C 5.5435635,-1.831304 6.0575256,-2.2387214 5.7584325,-2.2347172 Z m 0.4420573,1.1252603 a 1.333333,1.333333 0 0 1 0.2260417,0.025239 a 1.333333,1.333333 0 0 1 1.047157,1.56814187 A 1.333333,1.333333 0 0 1 6.299383,1.5487677 l 0,0.1782334 l -0.2666666,0 l 0,-0.1782117 A 1.333333,1.333333 0 0 1 5.9055463,1.5310594 A 1.333333,1.333333 0 0 1 4.858411,-0.03708318 A 1.333333,1.333333 0 0 1 6.2004898,-1.1094569 Z"
                 id="path4168" />
            <path
                 id="path4170"
                 d="m 5.7449138,-2.2426851 c -0.048942,6.552e-4 -0.1196504,0.012308 -0.2207465,0.038563 c -0.7189049,0.186703 0.2632308,0.2700941 -0.3828558,0.6365016 c -0.6460864,0.3664077 -0.2135132,-0.5192738 -0.7427517,0.00187 c -0.5292385,0.521144 0.3630206,0.1022599 -0.013303,0.74262123 C 4.0089331,-0.18277083 3.940702,-1.166092 3.7429392,-0.45015069 c -0.1977629,0.71594148 0.3655341,-0.0929266 0.359809,0.6498046 C 4.0970282,0.94238517 3.5462535,0.12491121 3.7329566,0.84381618 C 3.9196597,1.5627212 4.0030507,0.58056376 4.3694583,1.2266504 c 0.3664075,0.6460865 -0.5192738,0.213535 0.00187,0.7427735 C 4.8924686,2.4986622 4.4735845,1.6064032 5.113946,1.9827269 C 5.7543074,2.3590504 4.7709864,2.4272599 5.4869278,2.6250227 C 6.2028692,2.8227857 5.3940018,2.2595105 6.1367324,2.2652355 c 0.7427312,0.00572 -0.074743,0.5564946 0.6441622,0.3697915 C 7.4997997,2.4483238 6.5176422,2.3649331 7.1637288,1.9985254 c 0.6460866,-0.3664076 0.213535,0.5192758 0.7427734,-0.00187 C 8.4357405,1.475517 7.5434816,1.8943991 7.9198052,1.2540375 C 8.2961287,0.61367587 8.3643383,1.5969974 8.5621011,0.88105573 C 8.759864,0.16511414 8.1966105,0.97398239 8.2023355,0.23125113 c 0.00573,-0.74273115 0.5564513,0.0747428 0.3697482,-0.64416227 C 8.3853806,-1.131816 8.3020114,-0.14968039 7.9356037,-0.79576697 C 7.5691962,-1.4418533 8.4548795,-1.0092803 7.9337337,-1.5385185 C 7.4125918,-2.067757 7.831452,-1.1754978 7.1910906,-1.5518215 C 6.5507291,-1.928145 7.5340719,-1.9963546 6.8181306,-2.1941174 c -0.044747,-0.01236 -0.08356,-0.021752 -0.1171441,-0.028494 c -0.5037716,-0.101089 0.1636499,0.3936267 -0.5326606,0.3882595 C 5.5300411,-1.8392719 6.0440032,-2.2466893 5.7449101,-2.2426851 Z m 0.4420573,1.1252603 a 1.333333,1.333333 0 0 1 0.2260417,0.025239 a 1.333333,1.333333 0 0 1 1.047157,1.568142 A 1.333333,1.333333 0 0 1 6.2858643,1.5407998 l 0,0.1782334 l -0.2666666,0 l 0,-0.1782117 A 1.333333,1.333333 0 0 1 5.8920276,1.5230915 A 1.333333,1.333333 0 0 1 4.8448923,-0.04505095 A 1.333333,1.333333 0 0 1 6.1869711,-1.1174248 Z"
                 style="color:black;fill:#b4b4b4;fill-rule:evenodd;stroke-width:0.01111111;stroke-linecap:round;stroke-linejoin:round;filter:url(#filter4411)"
                 inkscape:connector-curvature="0" />
        </g>
    </g>
</svg>
